<?xml version="1.0" encoding="UTF-8" standalone="no"?>
<!-- Created with Inkscape (http://www.inkscape.org/) -->

<svg
   width="1080"
   height="1080"
   viewBox="0 0 1080 1080"
   version="1.1"
   id="svg1"
   xml:space="preserve"
   inkscape:version="1.4.3 (0d15f75, 2025-12-25)"
   sodipodi:docname="emergenstudioLOGO.svg"
   inkscape:export-filename="emergenstudioLOGO.svg"
   inkscape:export-xdpi="96"
   inkscape:export-ydpi="96"
   xmlns:inkscape="http://www.inkscape.org/namespaces/inkscape"
   xmlns:sodipodi="http://sodipodi.sourceforge.net/DTD/sodipodi-0.dtd"
   xmlns:xlink="http://www.w3.org/1999/xlink"
   xmlns="http://www.w3.org/2000/svg"
   xmlns:svg="http://www.w3.org/2000/svg"><sodipodi:namedview
     id="namedview1"
     pagecolor="#ffffff"
     bordercolor="#ffffff"
     borderopacity="1"
     inkscape:showpageshadow="2"
     inkscape:pageopacity="0.0"
     inkscape:pagecheckerboard="0"
     inkscape:deskcolor="#cdcade"
     inkscape:document-units="mm"
     inkscape:zoom="0.68"
     inkscape:cx="776.47059"
     inkscape:cy="586.02941"
     inkscape:window-width="1920"
     inkscape:window-height="1009"
     inkscape:window-x="-8"
     inkscape:window-y="-8"
     inkscape:window-maximized="1"
     inkscape:current-layer="layer7"
     inkscape:export-bgcolor="#ffffff00" /><defs
     id="defs1"><linearGradient
       id="linearGradient12"
       inkscape:collect="always"><stop
         style="stop-color:#1d4fff;stop-opacity:1;"
         offset="0.24567796"
         id="stop11" /><stop
         style="stop-color:#a020f0;stop-opacity:1;"
         offset="1"
         id="stop12" /></linearGradient><linearGradient
       inkscape:collect="always"
       xlink:href="#linearGradient12"
       id="linearGradient10"
       x1="43.985695"
       y1="233.2482"
       x2="250.27107"
       y2="80.103012"
       gradientUnits="userSpaceOnUse"
       spreadMethod="repeat" /><linearGradient
       inkscape:collect="always"
       xlink:href="#linearGradient12"
       id="linearGradient8"
       gradientUnits="userSpaceOnUse"
       x1="43.985695"
       y1="233.2482"
       x2="250.27107"
       y2="80.103012"
       spreadMethod="repeat" /><linearGradient
       inkscape:collect="always"
       xlink:href="#linearGradient12"
       id="linearGradient9"
       gradientUnits="userSpaceOnUse"
       x1="43.985695"
       y1="233.2482"
       x2="250.27107"
       y2="80.103012"
       spreadMethod="repeat" /></defs><g
     id="g8"
     transform="matrix(3.8774001,0,0,3.8774001,-18.048864,-19.574072)"
     inkscape:label="g8"><g
       inkscape:groupmode="layer"
       id="layer3"
       inkscape:label="Layer 2"
       style="display:inline;opacity:1;fill:url(#linearGradient9)"
       sodipodi:insensitive="true"><path
         id="path2"
         style="display:inline;fill:url(#linearGradient8);stroke-width:0.301601"
         d="M 144.81855,39.150065 C 88.053092,39.149958 42.035569,85.167482 42.035677,141.93294 c 3e-6,26.2801 12.515169,46.92469 30.579245,66.01218 -6.640999,9.7205 -10.446912,30.26103 -10.136565,40.64126 0.02647,0.88543 1.937005,1.9792 2.736784,1.59835 C 87.793089,239.43329 95.126683,231.6759 103.50437,234.21986 180.58616,267.84951 247.6012,209.90834 247.60142,141.93294 247.60153,85.167483 201.58401,39.14996 144.81855,39.150065 Z"
         sodipodi:nodetypes="cccssccc"
         inkscape:label="path2" /></g><g
       inkscape:groupmode="layer"
       id="layer7"
       inkscape:label="ARROW"
       style="display:inline;fill:none;fill-opacity:1;stroke:#000000;stroke-width:0;stroke-linecap:round;stroke-linejoin:round;stroke-dasharray:none;stroke-opacity:1"><path
         id="path4"
         style="baseline-shift:baseline;display:inline;overflow:visible;opacity:1;vector-effect:none;fill:#ffffff;fill-opacity:1;stroke:none;enable-background:accumulate;stop-color:#000000;stop-opacity:1"
         d="m 165.89323,104.25203 c -5.21849,-0.0168 -9.22673,4.35716 -9.24439,9.57565 -0.0169,5.21926 3.80739,9.07017 9.10538,9.71672 l 17.6997,0.007 c -2.45761,2.45261 -17.87401,18.19066 -24.33135,24.90052 -2.97296,2.90835 -5.80955,7.20645 -14.06424,3.47243 -5.12436,-2.31801 -9.17452,-8.54452 -14.719,-13.08086 -10.61093,-8.68155 -19.98173,-2.09537 -22.11648,0.0377 -21.692692,21.6762 -0.60539,-0.0193 -46.609557,47.78209 -0.617794,0.64193 -4.060767,3.81255 -5.87871,5.48132 4.073256,6.95293 9.064339,13.0082 14.754987,19.02133 1.253058,-1.75628 4.786321,-7.22305 8.359364,-11.0027 9.216462,-9.7494 27.804096,-28.06635 34.227366,-34.40151 3.56226,-3.5134 10.06568,-2.77045 13.82603,0.23874 5.17919,4.1446 11.23433,13.62935 16.96692,14.68127 11.05032,2.02769 14.84325,-2.99513 18.66191,-7.23418 21.31214,-23.65839 28.43784,-30.90855 30.80123,-33.05121 l 0.0641,13.55783 c 0.39295,8.73142 16.32783,13.16353 18.90066,0.0568 l 0.11885,-39.92573 c 0.0153,-5.21828 -4.20181,-9.46139 -9.42009,-9.47849 z"
         sodipodi:nodetypes="cccccsscsccssssscccccc" /></g><g
       inkscape:groupmode="layer"
       id="g7"
       inkscape:label="Layer 2 copy"
       style="display:inline;opacity:1;fill:url(#linearGradient10)"
       sodipodi:insensitive="true" /></g></svg>
